# xmcd CD database file
#
# Track frame offsets:
#	150
#	20097
#	34690
#	51695
#	64157
#	81367
#	97920
#	114435
#	128060
#	144262
#	166510
#	178190
#	188315
#	209135
#
# Disc length: 2984 seconds
#
# Revision: 0
# Processed by: cddbd v1.5.2PL0 Copyright (c) Steve Scherf et al.
# Submitted via: CDex 1.51
#
DISCID=bf0ba60e
DTITLE=Kate and Richard Mucci - The healing sounds of music
DYEAR=1996
DGENRE=New Age
TTITLE0=Carolan큦 Dream
TTITLE1=king큦 Procession
TTITLE2=Gartan Mother큦 Lullaby
TTITLE3=Scarboro Faire
TTITLE4=Castle of Dromore
TTITLE5=Night Dreams
TTITLE6=Fair Lady Kate
TTITLE7=Greensleeves
TTITLE8=Lauda St. Magdalena
TTITLE9=Gabriel큦 Lullaby
TTITLE10=Bonny Portmore
TTITLE11=Shule Aroon
TTITLE12=Aran Boat Song
TTITLE13=Pagan Waltz
EXTD=YEAR: 1996
EXTT0=
EXTT1=
EXTT2=
EXTT3=
EXTT4=
EXTT5=
EXTT6=
EXTT7=
EXTT8=
EXTT9=
EXTT10=
EXTT11=
EXTT12=
EXTT13=
PLAYORDER=
